<mxfile host="app.diagrams.net" agent="Mozilla/5.0 (Windows NT 10.0; Win64; x64) AppleWebKit/537.36 (KHTML, like Gecko) Chrome/132.0.0.0 Safari/537.36 Edg/132.0.0.0" version="26.0.11">
  <diagram name="Page-1" id="gCustvXmbooNgm2WBirr">
    <mxGraphModel dx="2003" dy="1269" grid="0" gridSize="10" guides="1" tooltips="1" connect="1" arrows="1" fold="1" page="0" pageScale="1" pageWidth="850" pageHeight="1100" background="#ffffff" math="0" shadow="0">
      <root>
        <mxCell id="0" />
        <mxCell id="1" parent="0" />
        <mxCell id="OvCZwt9L8NoobgOHN07p-1" value="" style="rounded=0;whiteSpace=wrap;html=1;swimlaneLine=1;fontStyle=1;shadow=1;" vertex="1" parent="1">
          <mxGeometry x="-286" y="-65" width="930" height="516" as="geometry" />
        </mxCell>
        <mxCell id="OvCZwt9L8NoobgOHN07p-2" value="gold.dim_customers" style="shape=table;startSize=30;container=1;collapsible=1;childLayout=tableLayout;fixedRows=1;rowLines=0;fontStyle=1;align=center;resizeLast=1;html=1;rounded=1;swimlaneLine=1;shadow=1;fillColor=#1ba1e2;fontColor=#ffffff;strokeColor=#006EAF;" vertex="1" parent="1">
          <mxGeometry x="-229" y="38" width="180" height="330" as="geometry" />
        </mxCell>
        <mxCell id="OvCZwt9L8NoobgOHN07p-3" value="" style="shape=tableRow;horizontal=0;startSize=0;swimlaneHead=0;swimlaneBody=0;fillColor=none;collapsible=0;dropTarget=0;points=[[0,0.5],[1,0.5]];portConstraint=eastwest;top=0;left=0;right=0;bottom=1;swimlaneLine=1;fontStyle=1;shadow=1;" vertex="1" parent="OvCZwt9L8NoobgOHN07p-2">
          <mxGeometry y="30" width="180" height="30" as="geometry" />
        </mxCell>
        <mxCell id="OvCZwt9L8NoobgOHN07p-4" value="PK" style="shape=partialRectangle;connectable=0;fillColor=none;top=0;left=0;bottom=0;right=0;fontStyle=1;overflow=hidden;whiteSpace=wrap;html=1;swimlaneLine=1;shadow=1;" vertex="1" parent="OvCZwt9L8NoobgOHN07p-3">
          <mxGeometry width="30" height="30" as="geometry">
            <mxRectangle width="30" height="30" as="alternateBounds" />
          </mxGeometry>
        </mxCell>
        <mxCell id="OvCZwt9L8NoobgOHN07p-5" value="customer_key" style="shape=partialRectangle;connectable=0;fillColor=none;top=0;left=0;bottom=0;right=0;align=left;spacingLeft=6;fontStyle=5;overflow=hidden;whiteSpace=wrap;html=1;swimlaneLine=1;shadow=1;" vertex="1" parent="OvCZwt9L8NoobgOHN07p-3">
          <mxGeometry x="30" width="150" height="30" as="geometry">
            <mxRectangle width="150" height="30" as="alternateBounds" />
          </mxGeometry>
        </mxCell>
        <mxCell id="OvCZwt9L8NoobgOHN07p-6" value="" style="shape=tableRow;horizontal=0;startSize=0;swimlaneHead=0;swimlaneBody=0;fillColor=none;collapsible=0;dropTarget=0;points=[[0,0.5],[1,0.5]];portConstraint=eastwest;top=0;left=0;right=0;bottom=0;swimlaneLine=1;fontStyle=1;shadow=1;" vertex="1" parent="OvCZwt9L8NoobgOHN07p-2">
          <mxGeometry y="60" width="180" height="30" as="geometry" />
        </mxCell>
        <mxCell id="OvCZwt9L8NoobgOHN07p-7" value="" style="shape=partialRectangle;connectable=0;fillColor=none;top=0;left=0;bottom=0;right=0;editable=1;overflow=hidden;whiteSpace=wrap;html=1;swimlaneLine=1;fontStyle=1;shadow=1;" vertex="1" parent="OvCZwt9L8NoobgOHN07p-6">
          <mxGeometry width="30" height="30" as="geometry">
            <mxRectangle width="30" height="30" as="alternateBounds" />
          </mxGeometry>
        </mxCell>
        <mxCell id="OvCZwt9L8NoobgOHN07p-8" value="customer_id" style="shape=partialRectangle;connectable=0;fillColor=none;top=0;left=0;bottom=0;right=0;align=left;spacingLeft=6;overflow=hidden;whiteSpace=wrap;html=1;swimlaneLine=1;fontStyle=1;shadow=1;" vertex="1" parent="OvCZwt9L8NoobgOHN07p-6">
          <mxGeometry x="30" width="150" height="30" as="geometry">
            <mxRectangle width="150" height="30" as="alternateBounds" />
          </mxGeometry>
        </mxCell>
        <mxCell id="OvCZwt9L8NoobgOHN07p-9" value="" style="shape=tableRow;horizontal=0;startSize=0;swimlaneHead=0;swimlaneBody=0;fillColor=none;collapsible=0;dropTarget=0;points=[[0,0.5],[1,0.5]];portConstraint=eastwest;top=0;left=0;right=0;bottom=0;swimlaneLine=1;fontStyle=1;shadow=1;" vertex="1" parent="OvCZwt9L8NoobgOHN07p-2">
          <mxGeometry y="90" width="180" height="30" as="geometry" />
        </mxCell>
        <mxCell id="OvCZwt9L8NoobgOHN07p-10" value="" style="shape=partialRectangle;connectable=0;fillColor=none;top=0;left=0;bottom=0;right=0;editable=1;overflow=hidden;whiteSpace=wrap;html=1;swimlaneLine=1;fontStyle=1;shadow=1;" vertex="1" parent="OvCZwt9L8NoobgOHN07p-9">
          <mxGeometry width="30" height="30" as="geometry">
            <mxRectangle width="30" height="30" as="alternateBounds" />
          </mxGeometry>
        </mxCell>
        <mxCell id="OvCZwt9L8NoobgOHN07p-11" value="customer_number" style="shape=partialRectangle;connectable=0;fillColor=none;top=0;left=0;bottom=0;right=0;align=left;spacingLeft=6;overflow=hidden;whiteSpace=wrap;html=1;swimlaneLine=1;fontStyle=1;shadow=1;" vertex="1" parent="OvCZwt9L8NoobgOHN07p-9">
          <mxGeometry x="30" width="150" height="30" as="geometry">
            <mxRectangle width="150" height="30" as="alternateBounds" />
          </mxGeometry>
        </mxCell>
        <mxCell id="OvCZwt9L8NoobgOHN07p-12" value="" style="shape=tableRow;horizontal=0;startSize=0;swimlaneHead=0;swimlaneBody=0;fillColor=none;collapsible=0;dropTarget=0;points=[[0,0.5],[1,0.5]];portConstraint=eastwest;top=0;left=0;right=0;bottom=0;swimlaneLine=1;fontStyle=1;shadow=1;" vertex="1" parent="OvCZwt9L8NoobgOHN07p-2">
          <mxGeometry y="120" width="180" height="30" as="geometry" />
        </mxCell>
        <mxCell id="OvCZwt9L8NoobgOHN07p-13" value="" style="shape=partialRectangle;connectable=0;fillColor=none;top=0;left=0;bottom=0;right=0;editable=1;overflow=hidden;whiteSpace=wrap;html=1;swimlaneLine=1;fontStyle=1;shadow=1;" vertex="1" parent="OvCZwt9L8NoobgOHN07p-12">
          <mxGeometry width="30" height="30" as="geometry">
            <mxRectangle width="30" height="30" as="alternateBounds" />
          </mxGeometry>
        </mxCell>
        <mxCell id="OvCZwt9L8NoobgOHN07p-14" value="customer_firstname" style="shape=partialRectangle;connectable=0;fillColor=none;top=0;left=0;bottom=0;right=0;align=left;spacingLeft=6;overflow=hidden;whiteSpace=wrap;html=1;swimlaneLine=1;fontStyle=1;shadow=1;" vertex="1" parent="OvCZwt9L8NoobgOHN07p-12">
          <mxGeometry x="30" width="150" height="30" as="geometry">
            <mxRectangle width="150" height="30" as="alternateBounds" />
          </mxGeometry>
        </mxCell>
        <mxCell id="OvCZwt9L8NoobgOHN07p-43" value="" style="shape=tableRow;horizontal=0;startSize=0;swimlaneHead=0;swimlaneBody=0;fillColor=none;collapsible=0;dropTarget=0;points=[[0,0.5],[1,0.5]];portConstraint=eastwest;top=0;left=0;right=0;bottom=0;swimlaneLine=1;fontStyle=1;shadow=1;" vertex="1" parent="OvCZwt9L8NoobgOHN07p-2">
          <mxGeometry y="150" width="180" height="30" as="geometry" />
        </mxCell>
        <mxCell id="OvCZwt9L8NoobgOHN07p-44" value="" style="shape=partialRectangle;connectable=0;fillColor=none;top=0;left=0;bottom=0;right=0;editable=1;overflow=hidden;whiteSpace=wrap;html=1;swimlaneLine=1;fontStyle=1;shadow=1;" vertex="1" parent="OvCZwt9L8NoobgOHN07p-43">
          <mxGeometry width="30" height="30" as="geometry">
            <mxRectangle width="30" height="30" as="alternateBounds" />
          </mxGeometry>
        </mxCell>
        <mxCell id="OvCZwt9L8NoobgOHN07p-45" value="customer_lastname" style="shape=partialRectangle;connectable=0;fillColor=none;top=0;left=0;bottom=0;right=0;align=left;spacingLeft=6;overflow=hidden;whiteSpace=wrap;html=1;swimlaneLine=1;fontStyle=1;shadow=1;" vertex="1" parent="OvCZwt9L8NoobgOHN07p-43">
          <mxGeometry x="30" width="150" height="30" as="geometry">
            <mxRectangle width="150" height="30" as="alternateBounds" />
          </mxGeometry>
        </mxCell>
        <mxCell id="OvCZwt9L8NoobgOHN07p-46" value="" style="shape=tableRow;horizontal=0;startSize=0;swimlaneHead=0;swimlaneBody=0;fillColor=none;collapsible=0;dropTarget=0;points=[[0,0.5],[1,0.5]];portConstraint=eastwest;top=0;left=0;right=0;bottom=0;swimlaneLine=1;fontStyle=1;shadow=1;" vertex="1" parent="OvCZwt9L8NoobgOHN07p-2">
          <mxGeometry y="180" width="180" height="30" as="geometry" />
        </mxCell>
        <mxCell id="OvCZwt9L8NoobgOHN07p-47" value="" style="shape=partialRectangle;connectable=0;fillColor=none;top=0;left=0;bottom=0;right=0;editable=1;overflow=hidden;whiteSpace=wrap;html=1;swimlaneLine=1;fontStyle=1;shadow=1;" vertex="1" parent="OvCZwt9L8NoobgOHN07p-46">
          <mxGeometry width="30" height="30" as="geometry">
            <mxRectangle width="30" height="30" as="alternateBounds" />
          </mxGeometry>
        </mxCell>
        <mxCell id="OvCZwt9L8NoobgOHN07p-48" value="birthdate" style="shape=partialRectangle;connectable=0;fillColor=none;top=0;left=0;bottom=0;right=0;align=left;spacingLeft=6;overflow=hidden;whiteSpace=wrap;html=1;swimlaneLine=1;fontStyle=1;shadow=1;" vertex="1" parent="OvCZwt9L8NoobgOHN07p-46">
          <mxGeometry x="30" width="150" height="30" as="geometry">
            <mxRectangle width="150" height="30" as="alternateBounds" />
          </mxGeometry>
        </mxCell>
        <mxCell id="OvCZwt9L8NoobgOHN07p-49" value="" style="shape=tableRow;horizontal=0;startSize=0;swimlaneHead=0;swimlaneBody=0;fillColor=none;collapsible=0;dropTarget=0;points=[[0,0.5],[1,0.5]];portConstraint=eastwest;top=0;left=0;right=0;bottom=0;swimlaneLine=1;fontStyle=1;shadow=1;" vertex="1" parent="OvCZwt9L8NoobgOHN07p-2">
          <mxGeometry y="210" width="180" height="30" as="geometry" />
        </mxCell>
        <mxCell id="OvCZwt9L8NoobgOHN07p-50" value="" style="shape=partialRectangle;connectable=0;fillColor=none;top=0;left=0;bottom=0;right=0;editable=1;overflow=hidden;whiteSpace=wrap;html=1;swimlaneLine=1;fontStyle=1;shadow=1;" vertex="1" parent="OvCZwt9L8NoobgOHN07p-49">
          <mxGeometry width="30" height="30" as="geometry">
            <mxRectangle width="30" height="30" as="alternateBounds" />
          </mxGeometry>
        </mxCell>
        <mxCell id="OvCZwt9L8NoobgOHN07p-51" value="country" style="shape=partialRectangle;connectable=0;fillColor=none;top=0;left=0;bottom=0;right=0;align=left;spacingLeft=6;overflow=hidden;whiteSpace=wrap;html=1;swimlaneLine=1;fontStyle=1;shadow=1;" vertex="1" parent="OvCZwt9L8NoobgOHN07p-49">
          <mxGeometry x="30" width="150" height="30" as="geometry">
            <mxRectangle width="150" height="30" as="alternateBounds" />
          </mxGeometry>
        </mxCell>
        <mxCell id="OvCZwt9L8NoobgOHN07p-52" value="" style="shape=tableRow;horizontal=0;startSize=0;swimlaneHead=0;swimlaneBody=0;fillColor=none;collapsible=0;dropTarget=0;points=[[0,0.5],[1,0.5]];portConstraint=eastwest;top=0;left=0;right=0;bottom=0;swimlaneLine=1;fontStyle=1;shadow=1;" vertex="1" parent="OvCZwt9L8NoobgOHN07p-2">
          <mxGeometry y="240" width="180" height="30" as="geometry" />
        </mxCell>
        <mxCell id="OvCZwt9L8NoobgOHN07p-53" value="" style="shape=partialRectangle;connectable=0;fillColor=none;top=0;left=0;bottom=0;right=0;editable=1;overflow=hidden;whiteSpace=wrap;html=1;swimlaneLine=1;fontStyle=1;shadow=1;" vertex="1" parent="OvCZwt9L8NoobgOHN07p-52">
          <mxGeometry width="30" height="30" as="geometry">
            <mxRectangle width="30" height="30" as="alternateBounds" />
          </mxGeometry>
        </mxCell>
        <mxCell id="OvCZwt9L8NoobgOHN07p-54" value="marital_status" style="shape=partialRectangle;connectable=0;fillColor=none;top=0;left=0;bottom=0;right=0;align=left;spacingLeft=6;overflow=hidden;whiteSpace=wrap;html=1;swimlaneLine=1;fontStyle=1;shadow=1;" vertex="1" parent="OvCZwt9L8NoobgOHN07p-52">
          <mxGeometry x="30" width="150" height="30" as="geometry">
            <mxRectangle width="150" height="30" as="alternateBounds" />
          </mxGeometry>
        </mxCell>
        <mxCell id="OvCZwt9L8NoobgOHN07p-55" value="" style="shape=tableRow;horizontal=0;startSize=0;swimlaneHead=0;swimlaneBody=0;fillColor=none;collapsible=0;dropTarget=0;points=[[0,0.5],[1,0.5]];portConstraint=eastwest;top=0;left=0;right=0;bottom=0;swimlaneLine=1;fontStyle=1;shadow=1;" vertex="1" parent="OvCZwt9L8NoobgOHN07p-2">
          <mxGeometry y="270" width="180" height="30" as="geometry" />
        </mxCell>
        <mxCell id="OvCZwt9L8NoobgOHN07p-56" value="" style="shape=partialRectangle;connectable=0;fillColor=none;top=0;left=0;bottom=0;right=0;editable=1;overflow=hidden;whiteSpace=wrap;html=1;swimlaneLine=1;fontStyle=1;shadow=1;" vertex="1" parent="OvCZwt9L8NoobgOHN07p-55">
          <mxGeometry width="30" height="30" as="geometry">
            <mxRectangle width="30" height="30" as="alternateBounds" />
          </mxGeometry>
        </mxCell>
        <mxCell id="OvCZwt9L8NoobgOHN07p-57" value="gender" style="shape=partialRectangle;connectable=0;fillColor=none;top=0;left=0;bottom=0;right=0;align=left;spacingLeft=6;overflow=hidden;whiteSpace=wrap;html=1;swimlaneLine=1;fontStyle=1;shadow=1;" vertex="1" parent="OvCZwt9L8NoobgOHN07p-55">
          <mxGeometry x="30" width="150" height="30" as="geometry">
            <mxRectangle width="150" height="30" as="alternateBounds" />
          </mxGeometry>
        </mxCell>
        <mxCell id="OvCZwt9L8NoobgOHN07p-58" value="" style="shape=tableRow;horizontal=0;startSize=0;swimlaneHead=0;swimlaneBody=0;fillColor=none;collapsible=0;dropTarget=0;points=[[0,0.5],[1,0.5]];portConstraint=eastwest;top=0;left=0;right=0;bottom=0;swimlaneLine=1;fontStyle=1;shadow=1;" vertex="1" parent="OvCZwt9L8NoobgOHN07p-2">
          <mxGeometry y="300" width="180" height="30" as="geometry" />
        </mxCell>
        <mxCell id="OvCZwt9L8NoobgOHN07p-59" value="" style="shape=partialRectangle;connectable=0;fillColor=none;top=0;left=0;bottom=0;right=0;editable=1;overflow=hidden;whiteSpace=wrap;html=1;swimlaneLine=1;fontStyle=1;shadow=1;" vertex="1" parent="OvCZwt9L8NoobgOHN07p-58">
          <mxGeometry width="30" height="30" as="geometry">
            <mxRectangle width="30" height="30" as="alternateBounds" />
          </mxGeometry>
        </mxCell>
        <mxCell id="OvCZwt9L8NoobgOHN07p-60" value="create_date" style="shape=partialRectangle;connectable=0;fillColor=none;top=0;left=0;bottom=0;right=0;align=left;spacingLeft=6;overflow=hidden;whiteSpace=wrap;html=1;swimlaneLine=1;fontStyle=1;shadow=1;" vertex="1" parent="OvCZwt9L8NoobgOHN07p-58">
          <mxGeometry x="30" width="150" height="30" as="geometry">
            <mxRectangle width="150" height="30" as="alternateBounds" />
          </mxGeometry>
        </mxCell>
        <mxCell id="OvCZwt9L8NoobgOHN07p-15" value="gold.fact_sales" style="shape=table;startSize=30;container=1;collapsible=1;childLayout=tableLayout;fixedRows=1;rowLines=0;fontStyle=1;align=center;resizeLast=1;html=1;rounded=1;swimlaneLine=1;shadow=1;fillColor=#008a00;fontColor=#ffffff;strokeColor=#005700;" vertex="1" parent="1">
          <mxGeometry x="106" y="137" width="180" height="300" as="geometry" />
        </mxCell>
        <mxCell id="OvCZwt9L8NoobgOHN07p-19" value="" style="shape=tableRow;horizontal=0;startSize=0;swimlaneHead=0;swimlaneBody=0;fillColor=none;collapsible=0;dropTarget=0;points=[[0,0.5],[1,0.5]];portConstraint=eastwest;top=0;left=0;right=0;bottom=0;swimlaneLine=1;fontStyle=1;shadow=1;" vertex="1" parent="OvCZwt9L8NoobgOHN07p-15">
          <mxGeometry y="30" width="180" height="30" as="geometry" />
        </mxCell>
        <mxCell id="OvCZwt9L8NoobgOHN07p-20" value="" style="shape=partialRectangle;connectable=0;fillColor=none;top=0;left=0;bottom=0;right=0;editable=1;overflow=hidden;whiteSpace=wrap;html=1;swimlaneLine=1;fontStyle=1;shadow=1;" vertex="1" parent="OvCZwt9L8NoobgOHN07p-19">
          <mxGeometry width="30" height="30" as="geometry">
            <mxRectangle width="30" height="30" as="alternateBounds" />
          </mxGeometry>
        </mxCell>
        <mxCell id="OvCZwt9L8NoobgOHN07p-21" value="order_number" style="shape=partialRectangle;connectable=0;fillColor=none;top=0;left=0;bottom=0;right=0;align=left;spacingLeft=6;overflow=hidden;whiteSpace=wrap;html=1;swimlaneLine=1;fontStyle=1;shadow=1;" vertex="1" parent="OvCZwt9L8NoobgOHN07p-19">
          <mxGeometry x="30" width="150" height="30" as="geometry">
            <mxRectangle width="150" height="30" as="alternateBounds" />
          </mxGeometry>
        </mxCell>
        <mxCell id="OvCZwt9L8NoobgOHN07p-22" value="" style="shape=tableRow;horizontal=0;startSize=0;swimlaneHead=0;swimlaneBody=0;fillColor=none;collapsible=0;dropTarget=0;points=[[0,0.5],[1,0.5]];portConstraint=eastwest;top=0;left=0;right=0;bottom=0;swimlaneLine=1;fontStyle=1;shadow=1;" vertex="1" parent="OvCZwt9L8NoobgOHN07p-15">
          <mxGeometry y="60" width="180" height="30" as="geometry" />
        </mxCell>
        <mxCell id="OvCZwt9L8NoobgOHN07p-23" value="FK" style="shape=partialRectangle;connectable=0;fillColor=none;top=0;left=0;bottom=0;right=0;editable=1;overflow=hidden;whiteSpace=wrap;html=1;swimlaneLine=1;fontStyle=1;shadow=1;" vertex="1" parent="OvCZwt9L8NoobgOHN07p-22">
          <mxGeometry width="30" height="30" as="geometry">
            <mxRectangle width="30" height="30" as="alternateBounds" />
          </mxGeometry>
        </mxCell>
        <mxCell id="OvCZwt9L8NoobgOHN07p-24" value="product_key&lt;span style=&quot;white-space: pre;&quot;&gt;&#x9;&lt;/span&gt;" style="shape=partialRectangle;connectable=0;fillColor=none;top=0;left=0;bottom=0;right=0;align=left;spacingLeft=6;overflow=hidden;whiteSpace=wrap;html=1;swimlaneLine=1;fontStyle=1;shadow=1;" vertex="1" parent="OvCZwt9L8NoobgOHN07p-22">
          <mxGeometry x="30" width="150" height="30" as="geometry">
            <mxRectangle width="150" height="30" as="alternateBounds" />
          </mxGeometry>
        </mxCell>
        <mxCell id="OvCZwt9L8NoobgOHN07p-106" value="" style="shape=tableRow;horizontal=0;startSize=0;swimlaneHead=0;swimlaneBody=0;fillColor=none;collapsible=0;dropTarget=0;points=[[0,0.5],[1,0.5]];portConstraint=eastwest;top=0;left=0;right=0;bottom=0;swimlaneLine=1;fontStyle=1;shadow=1;" vertex="1" parent="OvCZwt9L8NoobgOHN07p-15">
          <mxGeometry y="90" width="180" height="30" as="geometry" />
        </mxCell>
        <mxCell id="OvCZwt9L8NoobgOHN07p-107" value="FK" style="shape=partialRectangle;connectable=0;fillColor=none;top=0;left=0;bottom=0;right=0;editable=1;overflow=hidden;whiteSpace=wrap;html=1;swimlaneLine=1;fontStyle=1;shadow=1;" vertex="1" parent="OvCZwt9L8NoobgOHN07p-106">
          <mxGeometry width="30" height="30" as="geometry">
            <mxRectangle width="30" height="30" as="alternateBounds" />
          </mxGeometry>
        </mxCell>
        <mxCell id="OvCZwt9L8NoobgOHN07p-108" value="customer_key" style="shape=partialRectangle;connectable=0;fillColor=none;top=0;left=0;bottom=0;right=0;align=left;spacingLeft=6;overflow=hidden;whiteSpace=wrap;html=1;swimlaneLine=1;fontStyle=1;shadow=1;" vertex="1" parent="OvCZwt9L8NoobgOHN07p-106">
          <mxGeometry x="30" width="150" height="30" as="geometry">
            <mxRectangle width="150" height="30" as="alternateBounds" />
          </mxGeometry>
        </mxCell>
        <mxCell id="OvCZwt9L8NoobgOHN07p-109" value="" style="shape=tableRow;horizontal=0;startSize=0;swimlaneHead=0;swimlaneBody=0;fillColor=none;collapsible=0;dropTarget=0;points=[[0,0.5],[1,0.5]];portConstraint=eastwest;top=0;left=0;right=0;bottom=0;swimlaneLine=1;fontStyle=1;shadow=1;" vertex="1" parent="OvCZwt9L8NoobgOHN07p-15">
          <mxGeometry y="120" width="180" height="30" as="geometry" />
        </mxCell>
        <mxCell id="OvCZwt9L8NoobgOHN07p-110" value="" style="shape=partialRectangle;connectable=0;fillColor=none;top=0;left=0;bottom=0;right=0;editable=1;overflow=hidden;whiteSpace=wrap;html=1;swimlaneLine=1;fontStyle=1;shadow=1;" vertex="1" parent="OvCZwt9L8NoobgOHN07p-109">
          <mxGeometry width="30" height="30" as="geometry">
            <mxRectangle width="30" height="30" as="alternateBounds" />
          </mxGeometry>
        </mxCell>
        <mxCell id="OvCZwt9L8NoobgOHN07p-111" value="order_date" style="shape=partialRectangle;connectable=0;fillColor=none;top=0;left=0;bottom=0;right=0;align=left;spacingLeft=6;overflow=hidden;whiteSpace=wrap;html=1;swimlaneLine=1;fontStyle=1;shadow=1;" vertex="1" parent="OvCZwt9L8NoobgOHN07p-109">
          <mxGeometry x="30" width="150" height="30" as="geometry">
            <mxRectangle width="150" height="30" as="alternateBounds" />
          </mxGeometry>
        </mxCell>
        <mxCell id="OvCZwt9L8NoobgOHN07p-112" value="" style="shape=tableRow;horizontal=0;startSize=0;swimlaneHead=0;swimlaneBody=0;fillColor=none;collapsible=0;dropTarget=0;points=[[0,0.5],[1,0.5]];portConstraint=eastwest;top=0;left=0;right=0;bottom=0;swimlaneLine=1;fontStyle=1;shadow=1;" vertex="1" parent="OvCZwt9L8NoobgOHN07p-15">
          <mxGeometry y="150" width="180" height="30" as="geometry" />
        </mxCell>
        <mxCell id="OvCZwt9L8NoobgOHN07p-113" value="" style="shape=partialRectangle;connectable=0;fillColor=none;top=0;left=0;bottom=0;right=0;editable=1;overflow=hidden;whiteSpace=wrap;html=1;swimlaneLine=1;fontStyle=1;shadow=1;" vertex="1" parent="OvCZwt9L8NoobgOHN07p-112">
          <mxGeometry width="30" height="30" as="geometry">
            <mxRectangle width="30" height="30" as="alternateBounds" />
          </mxGeometry>
        </mxCell>
        <mxCell id="OvCZwt9L8NoobgOHN07p-114" value="shipping_date" style="shape=partialRectangle;connectable=0;fillColor=none;top=0;left=0;bottom=0;right=0;align=left;spacingLeft=6;overflow=hidden;whiteSpace=wrap;html=1;swimlaneLine=1;fontStyle=1;shadow=1;" vertex="1" parent="OvCZwt9L8NoobgOHN07p-112">
          <mxGeometry x="30" width="150" height="30" as="geometry">
            <mxRectangle width="150" height="30" as="alternateBounds" />
          </mxGeometry>
        </mxCell>
        <mxCell id="OvCZwt9L8NoobgOHN07p-115" value="" style="shape=tableRow;horizontal=0;startSize=0;swimlaneHead=0;swimlaneBody=0;fillColor=none;collapsible=0;dropTarget=0;points=[[0,0.5],[1,0.5]];portConstraint=eastwest;top=0;left=0;right=0;bottom=0;swimlaneLine=1;fontStyle=1;shadow=1;" vertex="1" parent="OvCZwt9L8NoobgOHN07p-15">
          <mxGeometry y="180" width="180" height="30" as="geometry" />
        </mxCell>
        <mxCell id="OvCZwt9L8NoobgOHN07p-116" value="" style="shape=partialRectangle;connectable=0;fillColor=none;top=0;left=0;bottom=0;right=0;editable=1;overflow=hidden;whiteSpace=wrap;html=1;swimlaneLine=1;fontStyle=1;shadow=1;" vertex="1" parent="OvCZwt9L8NoobgOHN07p-115">
          <mxGeometry width="30" height="30" as="geometry">
            <mxRectangle width="30" height="30" as="alternateBounds" />
          </mxGeometry>
        </mxCell>
        <mxCell id="OvCZwt9L8NoobgOHN07p-117" value="due_date" style="shape=partialRectangle;connectable=0;fillColor=none;top=0;left=0;bottom=0;right=0;align=left;spacingLeft=6;overflow=hidden;whiteSpace=wrap;html=1;swimlaneLine=1;fontStyle=1;shadow=1;" vertex="1" parent="OvCZwt9L8NoobgOHN07p-115">
          <mxGeometry x="30" width="150" height="30" as="geometry">
            <mxRectangle width="150" height="30" as="alternateBounds" />
          </mxGeometry>
        </mxCell>
        <mxCell id="OvCZwt9L8NoobgOHN07p-118" value="" style="shape=tableRow;horizontal=0;startSize=0;swimlaneHead=0;swimlaneBody=0;fillColor=none;collapsible=0;dropTarget=0;points=[[0,0.5],[1,0.5]];portConstraint=eastwest;top=0;left=0;right=0;bottom=0;swimlaneLine=1;fontStyle=1;shadow=1;" vertex="1" parent="OvCZwt9L8NoobgOHN07p-15">
          <mxGeometry y="210" width="180" height="30" as="geometry" />
        </mxCell>
        <mxCell id="OvCZwt9L8NoobgOHN07p-119" value="" style="shape=partialRectangle;connectable=0;fillColor=none;top=0;left=0;bottom=0;right=0;editable=1;overflow=hidden;whiteSpace=wrap;html=1;swimlaneLine=1;fontStyle=1;shadow=1;" vertex="1" parent="OvCZwt9L8NoobgOHN07p-118">
          <mxGeometry width="30" height="30" as="geometry">
            <mxRectangle width="30" height="30" as="alternateBounds" />
          </mxGeometry>
        </mxCell>
        <mxCell id="OvCZwt9L8NoobgOHN07p-120" value="sales_amount" style="shape=partialRectangle;connectable=0;fillColor=none;top=0;left=0;bottom=0;right=0;align=left;spacingLeft=6;overflow=hidden;whiteSpace=wrap;html=1;swimlaneLine=1;fontStyle=1;shadow=1;" vertex="1" parent="OvCZwt9L8NoobgOHN07p-118">
          <mxGeometry x="30" width="150" height="30" as="geometry">
            <mxRectangle width="150" height="30" as="alternateBounds" />
          </mxGeometry>
        </mxCell>
        <mxCell id="OvCZwt9L8NoobgOHN07p-121" value="" style="shape=tableRow;horizontal=0;startSize=0;swimlaneHead=0;swimlaneBody=0;fillColor=none;collapsible=0;dropTarget=0;points=[[0,0.5],[1,0.5]];portConstraint=eastwest;top=0;left=0;right=0;bottom=0;swimlaneLine=1;fontStyle=1;shadow=1;" vertex="1" parent="OvCZwt9L8NoobgOHN07p-15">
          <mxGeometry y="240" width="180" height="30" as="geometry" />
        </mxCell>
        <mxCell id="OvCZwt9L8NoobgOHN07p-122" value="" style="shape=partialRectangle;connectable=0;fillColor=none;top=0;left=0;bottom=0;right=0;editable=1;overflow=hidden;whiteSpace=wrap;html=1;swimlaneLine=1;fontStyle=1;shadow=1;" vertex="1" parent="OvCZwt9L8NoobgOHN07p-121">
          <mxGeometry width="30" height="30" as="geometry">
            <mxRectangle width="30" height="30" as="alternateBounds" />
          </mxGeometry>
        </mxCell>
        <mxCell id="OvCZwt9L8NoobgOHN07p-123" value="quantity" style="shape=partialRectangle;connectable=0;fillColor=none;top=0;left=0;bottom=0;right=0;align=left;spacingLeft=6;overflow=hidden;whiteSpace=wrap;html=1;swimlaneLine=1;fontStyle=1;shadow=1;" vertex="1" parent="OvCZwt9L8NoobgOHN07p-121">
          <mxGeometry x="30" width="150" height="30" as="geometry">
            <mxRectangle width="150" height="30" as="alternateBounds" />
          </mxGeometry>
        </mxCell>
        <mxCell id="OvCZwt9L8NoobgOHN07p-124" value="" style="shape=tableRow;horizontal=0;startSize=0;swimlaneHead=0;swimlaneBody=0;fillColor=none;collapsible=0;dropTarget=0;points=[[0,0.5],[1,0.5]];portConstraint=eastwest;top=0;left=0;right=0;bottom=0;swimlaneLine=1;fontStyle=1;shadow=1;" vertex="1" parent="OvCZwt9L8NoobgOHN07p-15">
          <mxGeometry y="270" width="180" height="30" as="geometry" />
        </mxCell>
        <mxCell id="OvCZwt9L8NoobgOHN07p-125" value="" style="shape=partialRectangle;connectable=0;fillColor=none;top=0;left=0;bottom=0;right=0;editable=1;overflow=hidden;whiteSpace=wrap;html=1;swimlaneLine=1;fontStyle=1;shadow=1;" vertex="1" parent="OvCZwt9L8NoobgOHN07p-124">
          <mxGeometry width="30" height="30" as="geometry">
            <mxRectangle width="30" height="30" as="alternateBounds" />
          </mxGeometry>
        </mxCell>
        <mxCell id="OvCZwt9L8NoobgOHN07p-126" value="price" style="shape=partialRectangle;connectable=0;fillColor=none;top=0;left=0;bottom=0;right=0;align=left;spacingLeft=6;overflow=hidden;whiteSpace=wrap;html=1;swimlaneLine=1;fontStyle=1;shadow=1;" vertex="1" parent="OvCZwt9L8NoobgOHN07p-124">
          <mxGeometry x="30" width="150" height="30" as="geometry">
            <mxRectangle width="150" height="30" as="alternateBounds" />
          </mxGeometry>
        </mxCell>
        <mxCell id="OvCZwt9L8NoobgOHN07p-42" value="&lt;span&gt;&lt;font style=&quot;font-size: 20px;&quot;&gt;Star Schema&lt;/font&gt;&lt;/span&gt;" style="text;html=1;align=center;verticalAlign=middle;resizable=0;points=[];autosize=1;strokeColor=none;fillColor=none;swimlaneLine=1;fontStyle=1;shadow=1;" vertex="1" parent="1">
          <mxGeometry x="117" y="-65" width="134" height="36" as="geometry" />
        </mxCell>
        <mxCell id="OvCZwt9L8NoobgOHN07p-61" value="gold.dim_products" style="shape=table;startSize=30;container=1;collapsible=1;childLayout=tableLayout;fixedRows=1;rowLines=0;fontStyle=1;align=center;resizeLast=1;html=1;rounded=1;swimlaneLine=1;shadow=1;fillColor=#e51400;fontColor=#ffffff;strokeColor=#B20000;" vertex="1" parent="1">
          <mxGeometry x="417" y="15" width="180" height="360" as="geometry" />
        </mxCell>
        <mxCell id="OvCZwt9L8NoobgOHN07p-62" value="" style="shape=tableRow;horizontal=0;startSize=0;swimlaneHead=0;swimlaneBody=0;fillColor=none;collapsible=0;dropTarget=0;points=[[0,0.5],[1,0.5]];portConstraint=eastwest;top=0;left=0;right=0;bottom=1;swimlaneLine=1;fontStyle=1;shadow=1;" vertex="1" parent="OvCZwt9L8NoobgOHN07p-61">
          <mxGeometry y="30" width="180" height="30" as="geometry" />
        </mxCell>
        <mxCell id="OvCZwt9L8NoobgOHN07p-63" value="PK" style="shape=partialRectangle;connectable=0;fillColor=none;top=0;left=0;bottom=0;right=0;fontStyle=1;overflow=hidden;whiteSpace=wrap;html=1;swimlaneLine=1;shadow=1;" vertex="1" parent="OvCZwt9L8NoobgOHN07p-62">
          <mxGeometry width="30" height="30" as="geometry">
            <mxRectangle width="30" height="30" as="alternateBounds" />
          </mxGeometry>
        </mxCell>
        <mxCell id="OvCZwt9L8NoobgOHN07p-64" value="product_key" style="shape=partialRectangle;connectable=0;fillColor=none;top=0;left=0;bottom=0;right=0;align=left;spacingLeft=6;fontStyle=5;overflow=hidden;whiteSpace=wrap;html=1;swimlaneLine=1;shadow=1;" vertex="1" parent="OvCZwt9L8NoobgOHN07p-62">
          <mxGeometry x="30" width="150" height="30" as="geometry">
            <mxRectangle width="150" height="30" as="alternateBounds" />
          </mxGeometry>
        </mxCell>
        <mxCell id="OvCZwt9L8NoobgOHN07p-65" value="" style="shape=tableRow;horizontal=0;startSize=0;swimlaneHead=0;swimlaneBody=0;fillColor=none;collapsible=0;dropTarget=0;points=[[0,0.5],[1,0.5]];portConstraint=eastwest;top=0;left=0;right=0;bottom=0;swimlaneLine=1;fontStyle=1;shadow=1;" vertex="1" parent="OvCZwt9L8NoobgOHN07p-61">
          <mxGeometry y="60" width="180" height="30" as="geometry" />
        </mxCell>
        <mxCell id="OvCZwt9L8NoobgOHN07p-66" value="" style="shape=partialRectangle;connectable=0;fillColor=none;top=0;left=0;bottom=0;right=0;editable=1;overflow=hidden;whiteSpace=wrap;html=1;swimlaneLine=1;fontStyle=1;shadow=1;" vertex="1" parent="OvCZwt9L8NoobgOHN07p-65">
          <mxGeometry width="30" height="30" as="geometry">
            <mxRectangle width="30" height="30" as="alternateBounds" />
          </mxGeometry>
        </mxCell>
        <mxCell id="OvCZwt9L8NoobgOHN07p-67" value="product_id" style="shape=partialRectangle;connectable=0;fillColor=none;top=0;left=0;bottom=0;right=0;align=left;spacingLeft=6;overflow=hidden;whiteSpace=wrap;html=1;swimlaneLine=1;fontStyle=1;shadow=1;" vertex="1" parent="OvCZwt9L8NoobgOHN07p-65">
          <mxGeometry x="30" width="150" height="30" as="geometry">
            <mxRectangle width="150" height="30" as="alternateBounds" />
          </mxGeometry>
        </mxCell>
        <mxCell id="OvCZwt9L8NoobgOHN07p-68" value="" style="shape=tableRow;horizontal=0;startSize=0;swimlaneHead=0;swimlaneBody=0;fillColor=none;collapsible=0;dropTarget=0;points=[[0,0.5],[1,0.5]];portConstraint=eastwest;top=0;left=0;right=0;bottom=0;swimlaneLine=1;fontStyle=1;shadow=1;" vertex="1" parent="OvCZwt9L8NoobgOHN07p-61">
          <mxGeometry y="90" width="180" height="30" as="geometry" />
        </mxCell>
        <mxCell id="OvCZwt9L8NoobgOHN07p-69" value="" style="shape=partialRectangle;connectable=0;fillColor=none;top=0;left=0;bottom=0;right=0;editable=1;overflow=hidden;whiteSpace=wrap;html=1;swimlaneLine=1;fontStyle=1;shadow=1;" vertex="1" parent="OvCZwt9L8NoobgOHN07p-68">
          <mxGeometry width="30" height="30" as="geometry">
            <mxRectangle width="30" height="30" as="alternateBounds" />
          </mxGeometry>
        </mxCell>
        <mxCell id="OvCZwt9L8NoobgOHN07p-70" value="product_number" style="shape=partialRectangle;connectable=0;fillColor=none;top=0;left=0;bottom=0;right=0;align=left;spacingLeft=6;overflow=hidden;whiteSpace=wrap;html=1;swimlaneLine=1;fontStyle=1;shadow=1;" vertex="1" parent="OvCZwt9L8NoobgOHN07p-68">
          <mxGeometry x="30" width="150" height="30" as="geometry">
            <mxRectangle width="150" height="30" as="alternateBounds" />
          </mxGeometry>
        </mxCell>
        <mxCell id="OvCZwt9L8NoobgOHN07p-71" value="" style="shape=tableRow;horizontal=0;startSize=0;swimlaneHead=0;swimlaneBody=0;fillColor=none;collapsible=0;dropTarget=0;points=[[0,0.5],[1,0.5]];portConstraint=eastwest;top=0;left=0;right=0;bottom=0;swimlaneLine=1;fontStyle=1;shadow=1;" vertex="1" parent="OvCZwt9L8NoobgOHN07p-61">
          <mxGeometry y="120" width="180" height="30" as="geometry" />
        </mxCell>
        <mxCell id="OvCZwt9L8NoobgOHN07p-72" value="" style="shape=partialRectangle;connectable=0;fillColor=none;top=0;left=0;bottom=0;right=0;editable=1;overflow=hidden;whiteSpace=wrap;html=1;swimlaneLine=1;fontStyle=1;shadow=1;" vertex="1" parent="OvCZwt9L8NoobgOHN07p-71">
          <mxGeometry width="30" height="30" as="geometry">
            <mxRectangle width="30" height="30" as="alternateBounds" />
          </mxGeometry>
        </mxCell>
        <mxCell id="OvCZwt9L8NoobgOHN07p-73" value="product_name" style="shape=partialRectangle;connectable=0;fillColor=none;top=0;left=0;bottom=0;right=0;align=left;spacingLeft=6;overflow=hidden;whiteSpace=wrap;html=1;swimlaneLine=1;fontStyle=1;shadow=1;" vertex="1" parent="OvCZwt9L8NoobgOHN07p-71">
          <mxGeometry x="30" width="150" height="30" as="geometry">
            <mxRectangle width="150" height="30" as="alternateBounds" />
          </mxGeometry>
        </mxCell>
        <mxCell id="OvCZwt9L8NoobgOHN07p-74" value="" style="shape=tableRow;horizontal=0;startSize=0;swimlaneHead=0;swimlaneBody=0;fillColor=none;collapsible=0;dropTarget=0;points=[[0,0.5],[1,0.5]];portConstraint=eastwest;top=0;left=0;right=0;bottom=0;swimlaneLine=1;fontStyle=1;shadow=1;" vertex="1" parent="OvCZwt9L8NoobgOHN07p-61">
          <mxGeometry y="150" width="180" height="30" as="geometry" />
        </mxCell>
        <mxCell id="OvCZwt9L8NoobgOHN07p-75" value="" style="shape=partialRectangle;connectable=0;fillColor=none;top=0;left=0;bottom=0;right=0;editable=1;overflow=hidden;whiteSpace=wrap;html=1;swimlaneLine=1;fontStyle=1;shadow=1;" vertex="1" parent="OvCZwt9L8NoobgOHN07p-74">
          <mxGeometry width="30" height="30" as="geometry">
            <mxRectangle width="30" height="30" as="alternateBounds" />
          </mxGeometry>
        </mxCell>
        <mxCell id="OvCZwt9L8NoobgOHN07p-76" value="category_id" style="shape=partialRectangle;connectable=0;fillColor=none;top=0;left=0;bottom=0;right=0;align=left;spacingLeft=6;overflow=hidden;whiteSpace=wrap;html=1;swimlaneLine=1;fontStyle=1;shadow=1;" vertex="1" parent="OvCZwt9L8NoobgOHN07p-74">
          <mxGeometry x="30" width="150" height="30" as="geometry">
            <mxRectangle width="150" height="30" as="alternateBounds" />
          </mxGeometry>
        </mxCell>
        <mxCell id="OvCZwt9L8NoobgOHN07p-77" value="" style="shape=tableRow;horizontal=0;startSize=0;swimlaneHead=0;swimlaneBody=0;fillColor=none;collapsible=0;dropTarget=0;points=[[0,0.5],[1,0.5]];portConstraint=eastwest;top=0;left=0;right=0;bottom=0;swimlaneLine=1;fontStyle=1;shadow=1;" vertex="1" parent="OvCZwt9L8NoobgOHN07p-61">
          <mxGeometry y="180" width="180" height="30" as="geometry" />
        </mxCell>
        <mxCell id="OvCZwt9L8NoobgOHN07p-78" value="" style="shape=partialRectangle;connectable=0;fillColor=none;top=0;left=0;bottom=0;right=0;editable=1;overflow=hidden;whiteSpace=wrap;html=1;swimlaneLine=1;fontStyle=1;shadow=1;" vertex="1" parent="OvCZwt9L8NoobgOHN07p-77">
          <mxGeometry width="30" height="30" as="geometry">
            <mxRectangle width="30" height="30" as="alternateBounds" />
          </mxGeometry>
        </mxCell>
        <mxCell id="OvCZwt9L8NoobgOHN07p-79" value="category" style="shape=partialRectangle;connectable=0;fillColor=none;top=0;left=0;bottom=0;right=0;align=left;spacingLeft=6;overflow=hidden;whiteSpace=wrap;html=1;swimlaneLine=1;fontStyle=1;shadow=1;" vertex="1" parent="OvCZwt9L8NoobgOHN07p-77">
          <mxGeometry x="30" width="150" height="30" as="geometry">
            <mxRectangle width="150" height="30" as="alternateBounds" />
          </mxGeometry>
        </mxCell>
        <mxCell id="OvCZwt9L8NoobgOHN07p-80" value="" style="shape=tableRow;horizontal=0;startSize=0;swimlaneHead=0;swimlaneBody=0;fillColor=none;collapsible=0;dropTarget=0;points=[[0,0.5],[1,0.5]];portConstraint=eastwest;top=0;left=0;right=0;bottom=0;swimlaneLine=1;fontStyle=1;shadow=1;" vertex="1" parent="OvCZwt9L8NoobgOHN07p-61">
          <mxGeometry y="210" width="180" height="30" as="geometry" />
        </mxCell>
        <mxCell id="OvCZwt9L8NoobgOHN07p-81" value="" style="shape=partialRectangle;connectable=0;fillColor=none;top=0;left=0;bottom=0;right=0;editable=1;overflow=hidden;whiteSpace=wrap;html=1;swimlaneLine=1;fontStyle=1;shadow=1;" vertex="1" parent="OvCZwt9L8NoobgOHN07p-80">
          <mxGeometry width="30" height="30" as="geometry">
            <mxRectangle width="30" height="30" as="alternateBounds" />
          </mxGeometry>
        </mxCell>
        <mxCell id="OvCZwt9L8NoobgOHN07p-82" value="subcategory" style="shape=partialRectangle;connectable=0;fillColor=none;top=0;left=0;bottom=0;right=0;align=left;spacingLeft=6;overflow=hidden;whiteSpace=wrap;html=1;swimlaneLine=1;fontStyle=1;shadow=1;" vertex="1" parent="OvCZwt9L8NoobgOHN07p-80">
          <mxGeometry x="30" width="150" height="30" as="geometry">
            <mxRectangle width="150" height="30" as="alternateBounds" />
          </mxGeometry>
        </mxCell>
        <mxCell id="OvCZwt9L8NoobgOHN07p-83" value="" style="shape=tableRow;horizontal=0;startSize=0;swimlaneHead=0;swimlaneBody=0;fillColor=none;collapsible=0;dropTarget=0;points=[[0,0.5],[1,0.5]];portConstraint=eastwest;top=0;left=0;right=0;bottom=0;swimlaneLine=1;fontStyle=1;shadow=1;" vertex="1" parent="OvCZwt9L8NoobgOHN07p-61">
          <mxGeometry y="240" width="180" height="30" as="geometry" />
        </mxCell>
        <mxCell id="OvCZwt9L8NoobgOHN07p-84" value="" style="shape=partialRectangle;connectable=0;fillColor=none;top=0;left=0;bottom=0;right=0;editable=1;overflow=hidden;whiteSpace=wrap;html=1;swimlaneLine=1;fontStyle=1;shadow=1;" vertex="1" parent="OvCZwt9L8NoobgOHN07p-83">
          <mxGeometry width="30" height="30" as="geometry">
            <mxRectangle width="30" height="30" as="alternateBounds" />
          </mxGeometry>
        </mxCell>
        <mxCell id="OvCZwt9L8NoobgOHN07p-85" value="maintenance" style="shape=partialRectangle;connectable=0;fillColor=none;top=0;left=0;bottom=0;right=0;align=left;spacingLeft=6;overflow=hidden;whiteSpace=wrap;html=1;swimlaneLine=1;fontStyle=1;shadow=1;" vertex="1" parent="OvCZwt9L8NoobgOHN07p-83">
          <mxGeometry x="30" width="150" height="30" as="geometry">
            <mxRectangle width="150" height="30" as="alternateBounds" />
          </mxGeometry>
        </mxCell>
        <mxCell id="OvCZwt9L8NoobgOHN07p-86" value="" style="shape=tableRow;horizontal=0;startSize=0;swimlaneHead=0;swimlaneBody=0;fillColor=none;collapsible=0;dropTarget=0;points=[[0,0.5],[1,0.5]];portConstraint=eastwest;top=0;left=0;right=0;bottom=0;swimlaneLine=1;fontStyle=1;shadow=1;" vertex="1" parent="OvCZwt9L8NoobgOHN07p-61">
          <mxGeometry y="270" width="180" height="30" as="geometry" />
        </mxCell>
        <mxCell id="OvCZwt9L8NoobgOHN07p-87" value="" style="shape=partialRectangle;connectable=0;fillColor=none;top=0;left=0;bottom=0;right=0;editable=1;overflow=hidden;whiteSpace=wrap;html=1;swimlaneLine=1;fontStyle=1;shadow=1;" vertex="1" parent="OvCZwt9L8NoobgOHN07p-86">
          <mxGeometry width="30" height="30" as="geometry">
            <mxRectangle width="30" height="30" as="alternateBounds" />
          </mxGeometry>
        </mxCell>
        <mxCell id="OvCZwt9L8NoobgOHN07p-88" value="product_cost" style="shape=partialRectangle;connectable=0;fillColor=none;top=0;left=0;bottom=0;right=0;align=left;spacingLeft=6;overflow=hidden;whiteSpace=wrap;html=1;swimlaneLine=1;fontStyle=1;shadow=1;" vertex="1" parent="OvCZwt9L8NoobgOHN07p-86">
          <mxGeometry x="30" width="150" height="30" as="geometry">
            <mxRectangle width="150" height="30" as="alternateBounds" />
          </mxGeometry>
        </mxCell>
        <mxCell id="OvCZwt9L8NoobgOHN07p-89" value="" style="shape=tableRow;horizontal=0;startSize=0;swimlaneHead=0;swimlaneBody=0;fillColor=none;collapsible=0;dropTarget=0;points=[[0,0.5],[1,0.5]];portConstraint=eastwest;top=0;left=0;right=0;bottom=0;swimlaneLine=1;fontStyle=1;shadow=1;" vertex="1" parent="OvCZwt9L8NoobgOHN07p-61">
          <mxGeometry y="300" width="180" height="30" as="geometry" />
        </mxCell>
        <mxCell id="OvCZwt9L8NoobgOHN07p-90" value="" style="shape=partialRectangle;connectable=0;fillColor=none;top=0;left=0;bottom=0;right=0;editable=1;overflow=hidden;whiteSpace=wrap;html=1;swimlaneLine=1;fontStyle=1;shadow=1;" vertex="1" parent="OvCZwt9L8NoobgOHN07p-89">
          <mxGeometry width="30" height="30" as="geometry">
            <mxRectangle width="30" height="30" as="alternateBounds" />
          </mxGeometry>
        </mxCell>
        <mxCell id="OvCZwt9L8NoobgOHN07p-91" value="product_line" style="shape=partialRectangle;connectable=0;fillColor=none;top=0;left=0;bottom=0;right=0;align=left;spacingLeft=6;overflow=hidden;whiteSpace=wrap;html=1;swimlaneLine=1;fontStyle=1;shadow=1;" vertex="1" parent="OvCZwt9L8NoobgOHN07p-89">
          <mxGeometry x="30" width="150" height="30" as="geometry">
            <mxRectangle width="150" height="30" as="alternateBounds" />
          </mxGeometry>
        </mxCell>
        <mxCell id="OvCZwt9L8NoobgOHN07p-92" value="" style="shape=tableRow;horizontal=0;startSize=0;swimlaneHead=0;swimlaneBody=0;fillColor=none;collapsible=0;dropTarget=0;points=[[0,0.5],[1,0.5]];portConstraint=eastwest;top=0;left=0;right=0;bottom=0;swimlaneLine=1;fontStyle=1;shadow=1;" vertex="1" parent="OvCZwt9L8NoobgOHN07p-61">
          <mxGeometry y="330" width="180" height="30" as="geometry" />
        </mxCell>
        <mxCell id="OvCZwt9L8NoobgOHN07p-93" value="" style="shape=partialRectangle;connectable=0;fillColor=none;top=0;left=0;bottom=0;right=0;editable=1;overflow=hidden;whiteSpace=wrap;html=1;swimlaneLine=1;fontStyle=1;shadow=1;" vertex="1" parent="OvCZwt9L8NoobgOHN07p-92">
          <mxGeometry width="30" height="30" as="geometry">
            <mxRectangle width="30" height="30" as="alternateBounds" />
          </mxGeometry>
        </mxCell>
        <mxCell id="OvCZwt9L8NoobgOHN07p-94" value="product_start_date" style="shape=partialRectangle;connectable=0;fillColor=none;top=0;left=0;bottom=0;right=0;align=left;spacingLeft=6;overflow=hidden;whiteSpace=wrap;html=1;swimlaneLine=1;fontStyle=1;shadow=1;" vertex="1" parent="OvCZwt9L8NoobgOHN07p-92">
          <mxGeometry x="30" width="150" height="30" as="geometry">
            <mxRectangle width="150" height="30" as="alternateBounds" />
          </mxGeometry>
        </mxCell>
        <mxCell id="OvCZwt9L8NoobgOHN07p-127" value="" style="edgeStyle=entityRelationEdgeStyle;fontSize=12;html=1;endArrow=ERzeroToMany;startArrow=ERmandOne;rounded=0;exitX=1;exitY=0.5;exitDx=0;exitDy=0;entryX=0;entryY=0.5;entryDx=0;entryDy=0;" edge="1" parent="1" source="OvCZwt9L8NoobgOHN07p-3" target="OvCZwt9L8NoobgOHN07p-106">
          <mxGeometry width="100" height="100" relative="1" as="geometry">
            <mxPoint x="180" y="115" as="sourcePoint" />
            <mxPoint x="92.42135623730951" y="473" as="targetPoint" />
          </mxGeometry>
        </mxCell>
        <mxCell id="OvCZwt9L8NoobgOHN07p-128" value="" style="edgeStyle=entityRelationEdgeStyle;fontSize=12;html=1;endArrow=ERzeroToMany;startArrow=ERmandOne;rounded=0;exitX=0;exitY=0.5;exitDx=0;exitDy=0;entryX=1;entryY=0.5;entryDx=0;entryDy=0;" edge="1" parent="1" source="OvCZwt9L8NoobgOHN07p-62" target="OvCZwt9L8NoobgOHN07p-22">
          <mxGeometry width="100" height="100" relative="1" as="geometry">
            <mxPoint x="272" y="65" as="sourcePoint" />
            <mxPoint x="427" y="224" as="targetPoint" />
          </mxGeometry>
        </mxCell>
      </root>
    </mxGraphModel>
  </diagram>
</mxfile>
